<?xml version="1.0" standalone="no"?>
<!DOCTYPE svg PUBLIC "-//W3C//DTD SVG 20010904//EN"
 "http://www.w3.org/TR/2001/REC-SVG-20010904/DTD/svg10.dtd">
<svg version="1.0" xmlns="http://www.w3.org/2000/svg"
 width="383.000000pt" height="383.000000pt" viewBox="0 0 383.000000 383.000000"
 preserveAspectRatio="xMidYMid meet">
<metadata>
Created by potrace 1.14, written by Peter Selinger 2001-2017
</metadata>
<g transform="translate(0.000000,383.000000) scale(0.100000,-0.100000)"
fill="#000000" stroke="none">
<path d="M0 1915 l0 -1915 591 0 c577 0 591 0 578 19 -16 21 -96 113 -250 287
-119 134 -124 140 -210 244 -34 41 -86 102 -116 134 -85 92 -108 132 -108 187
0 26 3 45 6 43 3 -2 9 29 13 68 4 40 11 75 16 78 5 3 5 11 0 20 -8 13 -10 13
-10 1 0 -8 -2 -12 -5 -9 -3 3 -1 17 5 32 7 19 6 32 -2 45 -8 14 -8 26 3 50 8
17 17 31 22 31 4 0 3 10 -3 23 -10 20 -9 20 11 -3 l22 -25 -5 27 c-3 15 -2 25
3 23 4 -3 6 7 5 22 -2 15 -8 29 -15 31 -6 2 -11 8 -11 13 0 5 22 -2 50 -16 30
-15 66 -25 93 -25 40 0 44 -3 55 -32 6 -18 14 -58 17 -88 4 -30 11 -70 17 -88
11 -35 23 -134 37 -282 4 -53 16 -114 26 -135 9 -22 21 -49 26 -60 5 -11 14
-44 19 -74 6 -30 14 -59 19 -65 27 -34 61 -111 61 -136 0 -31 13 -39 27 -17 9
14 43 19 43 6 0 -5 6 -6 14 -3 8 3 17 1 21 -5 3 -6 19 -11 34 -11 45 0 91 -12
85 -21 -3 -5 1 -9 9 -9 8 0 20 -7 27 -15 7 -9 15 -13 18 -11 5 6 17 -6 62 -64
63 -81 99 -110 185 -150 l86 -40 183 0 c128 0 186 4 194 12 9 9 12 9 12 0 0
-23 18 -12 39 24 16 26 26 34 38 29 10 -3 14 -3 10 1 -4 4 -2 13 3 19 11 13
69 12 180 -5 124 -18 156 -20 340 -21 102 -1 213 -5 248 -9 34 -3 62 -3 62 1
0 9 -38 19 -72 19 -16 0 -28 2 -28 5 0 10 113 140 134 154 12 8 23 17 26 20 3
3 25 24 48 46 l43 40 25 -30 c26 -32 78 -131 79 -153 0 -7 47 -44 104 -82
l104 -70 243 0 244 0 0 1915 0 1916 -699 -2 c-384 0 -704 -5 -712 -10 -11 -7
-10 -9 6 -10 26 -1 66 -8 85 -15 12 -4 13 -6 0 -14 -12 -8 -12 -10 3 -16 9 -3
24 -4 32 0 8 3 15 1 15 -4 0 -5 9 -10 20 -12 15 -2 17 -6 9 -18 -8 -11 -12
-12 -16 -2 -2 6 -10 12 -16 12 -7 0 3 -14 21 -31 25 -23 36 -29 45 -20 6 6 15
11 21 11 6 0 5 -5 -2 -12 -18 -18 -15 -27 7 -21 11 3 28 0 38 -6 10 -6 12 -11
6 -11 -23 0 -14 -20 8 -20 12 0 28 -8 36 -17 14 -17 14 -17 9 -1 -3 10 -1 20
4 23 6 4 10 11 10 17 0 7 -4 7 -13 -1 -11 -8 -16 -6 -24 12 -9 20 -8 22 18 22
16 0 29 -3 29 -7 0 -13 28 -9 33 5 3 8 8 5 13 -8 4 -10 15 -27 23 -37 16 -18
24 -71 15 -97 -3 -9 -9 -7 -23 10 l-18 23 0 -27 c0 -15 3 -27 8 -27 5 0 9 -6
9 -13 0 -7 9 -18 21 -25 12 -8 18 -19 15 -27 -3 -8 0 -14 7 -12 7 1 11 -6 9
-17 -2 -10 1 -15 6 -12 9 6 39 -47 57 -101 4 -13 10 -23 14 -23 4 0 13 -16 21
-35 8 -19 17 -35 21 -35 4 0 5 -9 2 -20 -3 -11 -1 -20 5 -20 14 0 35 -67 26
-81 -5 -9 0 -10 15 -6 19 5 22 2 18 -14 -3 -10 -2 -17 3 -14 12 7 20 -20 13
-44 -4 -17 -2 -20 11 -15 18 7 20 -12 16 -148 -1 -52 2 -78 9 -78 8 0 10 -16
6 -49 -3 -30 -2 -52 5 -56 6 -4 10 -21 10 -38 -1 -18 2 -48 6 -67 3 -19 6 -44
5 -55 0 -10 4 -24 10 -31 5 -7 11 -26 14 -43 2 -17 7 -35 10 -41 4 -7 1 -10
-8 -8 -9 2 -22 -5 -29 -15 -7 -9 -23 -19 -36 -22 -12 -2 -25 -6 -30 -9 -4 -2
-25 4 -46 15 -45 22 -49 23 -41 10 5 -10 -41 -9 -50 1 -7 7 -54 -3 -60 -12 -3
-5 6 -17 20 -28 31 -25 33 -58 3 -66 -32 -8 -68 -7 -68 2 0 4 -18 7 -39 7 -23
1 -37 -3 -34 -9 3 -5 1 -6 -5 -2 -12 7 -77 -7 -100 -22 -14 -9 -5 -45 9 -37
13 8 60 -6 53 -16 -3 -5 -25 -9 -50 -9 -25 0 -43 -4 -40 -9 4 -5 -7 -15 -23
-22 -16 -7 -27 -17 -25 -21 5 -8 -29 -12 -81 -8 -36 2 -27 -10 18 -25 30 -9
32 -13 32 -60 l0 -50 -38 -5 c-42 -6 -50 -22 -15 -30 40 -9 60 -64 53 -145 -3
-38 -10 -71 -15 -73 -5 -2 -3 -10 5 -19 16 -15 21 -53 7 -53 -5 0 -8 -10 -8
-21 1 -12 -5 -24 -13 -27 -10 -3 -11 2 -6 19 5 19 4 21 -4 9 -16 -22 -13 -37
8 -43 11 -3 23 -20 31 -43 6 -22 16 -48 21 -59 15 -31 16 -80 2 -78 -7 2 -13
-2 -13 -8 0 -5 -4 -7 -10 -4 -5 3 -11 1 -11 -4 -3 -23 -5 -27 -24 -48 -18 -21
-23 -35 -29 -78 -2 -17 -11 -20 -57 -21 -77 -2 -77 -2 -84 -23 -4 -14 -16 -19
-45 -19 -22 0 -44 -3 -49 -6 -5 -4 -19 6 -30 21 l-21 28 6 -26 c3 -15 2 -29
-3 -32 -4 -3 -9 5 -9 16 -1 12 -4 36 -6 52 -3 25 3 35 31 58 18 15 38 27 43
27 5 0 22 -15 39 -32 16 -18 29 -27 29 -21 0 7 -5 15 -11 18 -13 9 19 34 44
35 28 0 17 31 -15 43 -11 4 -22 -2 -33 -19 -20 -30 -32 -24 -41 21 -5 29 -2
38 17 54 16 13 28 16 36 10 16 -14 25 5 25 52 -1 26 3 37 10 33 7 -5 9 -2 5 8
-3 9 0 21 6 27 8 8 6 11 -8 11 -16 0 -17 2 -6 9 16 10 24 58 11 66 -5 3 2 29
15 58 24 54 47 174 35 182 -4 3 -13 -14 -19 -38 -13 -49 -31 -82 -31 -56 0 22
-38 37 -77 32 -21 -3 -33 -1 -33 6 0 6 -10 11 -22 12 -13 0 -17 3 -10 6 18 7
14 24 -5 21 -10 -2 -20 -5 -23 -8 -14 -14 -52 -31 -45 -20 6 9 2 9 -15 0 -13
-7 -19 -17 -16 -26 3 -9 1 -12 -4 -9 -6 3 -10 2 -10 -4 0 -14 -42 -55 -60 -59
-8 -2 -22 -10 -30 -19 -14 -14 -12 -15 18 -10 38 8 44 -8 6 -17 -15 -4 -32 -2
-40 5 -8 7 -17 9 -21 5 -11 -10 4 -18 39 -21 22 -1 37 -9 44 -24 6 -12 14 -22
18 -22 18 2 20 0 7 -8 -9 -6 -10 -14 -4 -27 6 -11 7 -30 2 -44 -4 -14 -8 -20
-9 -15 -1 6 -5 -1 -9 -15 -4 -14 -4 -30 1 -37 11 -14 1 -36 -13 -28 -5 4 -9 2
-9 -4 0 -5 -8 -11 -17 -13 -11 -2 -14 -6 -7 -10 6 -4 23 0 39 8 15 8 30 12 33
9 9 -9 -31 -33 -73 -44 -41 -10 -59 -6 -36 8 7 5 10 14 7 20 -5 8 -19 5 -46
-10 -41 -23 -45 -40 -7 -33 20 4 21 4 2 -5 -11 -5 -35 -10 -52 -10 -37 -1 -43
-15 -14 -31 29 -15 56 -12 106 11 58 27 79 20 70 -23 -4 -17 -16 -40 -26 -51
-14 -15 -15 -23 -7 -37 7 -10 17 -16 23 -13 7 2 15 -3 18 -11 4 -10 1 -13 -9
-9 -7 3 -14 2 -14 -1 0 -18 46 -22 70 -7 23 15 24 15 11 -2 -11 -14 -11 -20 0
-34 12 -15 12 -16 -3 -10 -10 3 -18 3 -18 -2 0 -12 -67 -81 -78 -81 -5 0 -12
-9 -15 -21 -3 -12 -10 -18 -16 -14 -6 3 -14 -1 -17 -9 -9 -23 -26 -8 -18 16 4
14 3 18 -5 13 -17 -10 -61 22 -61 45 0 11 -4 20 -10 20 -5 0 -7 -7 -4 -15 4
-9 0 -15 -9 -15 -9 0 -16 -12 -19 -29 -3 -23 -1 -27 14 -23 12 3 18 -1 18 -12
0 -9 -4 -16 -10 -16 -5 0 -10 -5 -10 -12 0 -9 3 -9 12 0 17 17 45 15 52 -4 3
-8 -4 -29 -17 -45 l-22 -31 -11 28 c-11 27 -12 27 -19 5 -3 -12 -4 -40 0 -62
5 -31 3 -45 -10 -59 -12 -13 -16 -31 -13 -53 3 -27 0 -33 -10 -29 -9 3 -12 15
-10 34 3 18 1 27 -6 25 -8 -3 -11 9 -10 32 1 41 -41 115 -62 107 -25 -9 -35
19 -19 50 12 22 14 46 9 100 -3 39 -7 102 -8 141 -2 38 -6 74 -9 80 -4 6 0 23
7 39 8 16 17 56 20 89 3 33 10 87 16 120 6 33 13 78 16 100 8 75 15 105 24
105 4 0 6 9 3 19 -6 24 13 61 32 61 8 0 15 1 15 3 0 1 4 16 9 34 7 25 6 31 -4
27 -7 -3 -22 10 -35 31 -12 20 -24 34 -27 31 -3 -3 -9 -31 -13 -63 -4 -32 -21
-130 -38 -218 -16 -88 -34 -185 -38 -215 -9 -53 -10 -55 -39 -53 -45 3 -126
92 -154 168 -62 165 -32 416 61 512 38 39 62 45 27 6 l-24 -26 25 16 c28 20
57 22 62 6 7 -22 59 -11 103 20 24 17 46 31 49 31 3 0 6 -16 6 -35 0 -34 12
-46 25 -25 4 6 21 10 39 8 25 -1 32 -6 31 -21 -1 -11 -8 -25 -16 -31 -8 -6
-14 -20 -15 -31 0 -11 -3 -32 -7 -47 -7 -25 -6 -26 18 -15 13 7 30 22 36 35
16 30 42 28 60 -4 28 -54 106 -60 150 -12 16 18 29 38 29 45 0 7 7 13 15 13 8
0 15 -7 15 -15 0 -8 5 -15 10 -15 6 0 10 7 10 16 0 14 10 16 68 11 37 -2 76
-8 87 -12 16 -5 14 -1 -7 19 -16 14 -28 27 -28 30 0 3 24 6 53 8 l52 3 -57 14
c-32 8 -58 18 -58 22 0 16 -75 45 -110 42 -140 -10 -190 -10 -195 -3 -3 5 -13
6 -22 3 -9 -4 -21 1 -28 10 -11 16 -14 16 -25 2 -11 -13 -11 -16 1 -13 8 2 14
-4 14 -12 0 -8 -8 -16 -18 -18 -10 -2 -17 0 -16 5 1 4 1 17 0 27 -1 18 -2 19
-21 1 -23 -20 -25 -20 -35 14 -5 16 -4 21 4 17 6 -4 11 -2 11 4 0 7 8 9 20 5
11 -3 20 -2 20 3 0 12 18 12 140 0 167 -15 240 -18 240 -10 0 10 -63 46 -77
43 -7 -1 -13 2 -13 7 0 5 -30 12 -67 16 -37 4 -72 11 -78 15 -31 25 -71 19
-116 -17 -10 -7 -28 -10 -48 -6 -26 5 -29 9 -19 21 19 24 50 36 98 39 25 1 74
7 110 13 36 6 69 11 73 11 5 0 5 5 2 10 -3 6 -30 10 -60 10 -30 0 -56 4 -60 9
-7 12 -65 -7 -65 -20 0 -5 -7 -9 -15 -9 -8 0 -15 -4 -15 -10 0 -5 -18 -10 -40
-10 -36 0 -42 -4 -62 -40 -21 -37 -26 -40 -68 -41 -117 -2 -214 -54 -291 -158
-40 -54 -39 -55 -374 83 -88 37 -166 74 -175 83 -8 8 -9 13 -2 9 20 -12 13 13
-8 26 -23 14 -28 43 -6 35 10 -4 13 2 12 19 -1 16 -7 24 -19 24 -15 0 -18 7
-15 38 2 28 -1 37 -12 37 -9 0 -15 -9 -15 -21 0 -23 -22 -54 -37 -54 -6 0 -7
7 -4 16 5 12 2 15 -10 10 -11 -4 -15 -2 -11 8 3 8 -1 20 -9 26 -8 7 -14 17
-14 22 0 5 7 2 16 -7 9 -9 19 -13 22 -10 4 3 0 10 -7 14 -8 5 -10 14 -6 22 6
9 3 11 -10 6 -14 -6 -16 -3 -12 13 3 14 1 20 -6 17 -16 -5 -21 -45 -8 -61 6
-8 9 -21 5 -30 -5 -14 -9 -12 -25 8 -10 13 -19 30 -19 38 -1 8 -6 6 -15 -6
-25 -33 -37 -5 -44 97 -1 5 -9 6 -19 3 -15 -5 -18 -1 -16 23 1 15 7 37 12 48
9 15 7 22 -8 33 -13 10 -18 21 -14 36 3 13 1 31 -5 41 -10 17 -11 17 -17 -4
-3 -13 -10 -23 -14 -23 -4 0 -10 -10 -13 -22 -4 -12 -9 -19 -13 -15 -4 4 -2
17 4 30 6 12 18 38 26 59 8 20 24 39 35 43 12 3 21 11 21 18 0 8 -3 8 -12 -1
-18 -18 -30 -14 -23 8 4 11 2 20 -4 20 -6 0 -11 4 -11 10 0 5 7 7 15 4 9 -4
15 0 15 8 0 8 14 30 31 49 29 33 30 33 20 7 -12 -31 -5 -34 23 -13 18 14 21
13 33 -16 7 -17 13 -51 13 -75 0 -34 4 -44 16 -44 10 0 14 -6 10 -15 -6 -17 9
-21 19 -5 11 17 27 11 21 -7 -5 -16 -5 -16 8 0 16 21 13 110 -4 115 -6 2 -10
8 -10 14 0 6 7 8 15 4 9 -3 15 0 15 9 0 8 -6 15 -12 15 -7 1 1 12 17 25 21 18
25 25 14 25 -9 0 -19 7 -23 15 -3 8 -1 15 5 15 6 0 8 4 5 9 -3 5 3 19 13 32
10 13 21 34 25 47 4 12 12 22 17 22 5 0 9 9 9 19 0 11 5 23 10 26 6 4 8 15 5
25 -3 11 -1 28 5 40 12 22 1 27 -19 8 -10 -11 -11 -10 -6 5 4 10 2 17 -4 17
-6 0 -11 5 -11 11 0 6 9 8 23 3 55 -17 53 -17 37 -5 -12 8 -12 11 -1 11 7 0
11 6 8 14 -3 8 3 22 14 32 10 9 17 19 14 22 -3 3 1 12 8 20 10 13 9 14 -3 10
-8 -2 -20 -15 -27 -28 -10 -21 -13 -22 -19 -7 -3 9 -10 14 -15 11 -5 -3 -9 -1
-9 3 0 14 23 33 38 33 19 0 41 29 42 54 0 14 -3 16 -13 7 -8 -6 -17 -8 -20 -4
-13 12 -7 23 14 23 16 0 19 4 14 20 -4 12 -2 20 5 20 6 0 10 8 8 17 -2 11 6
22 20 28 12 5 22 13 22 18 0 4 -4 5 -10 2 -5 -3 -10 -2 -10 4 0 5 5 13 11 17
15 9 2 54 -22 75 -10 9 -19 24 -19 34 0 10 3 15 7 12 3 -4 11 3 17 15 15 29
47 47 53 31 8 -21 25 -14 18 7 -5 15 2 24 27 40 l33 20 -587 0 -588 0 0 -1915z
m2620 1805 c0 -5 -5 -10 -11 -10 -5 0 -7 5 -4 10 3 6 8 10 11 10 2 0 4 -4 4
-10z m-1625 -230 c3 -5 1 -10 -4 -10 -6 0 -11 5 -11 10 0 6 2 10 4 10 3 0 8
-4 11 -10z m-69 -298 c-4 -11 -14 -23 -23 -27 -15 -5 -15 -4 0 13 9 10 17 25
17 32 0 7 3 11 6 7 3 -3 3 -14 0 -25z m-155 -232 c6 0 7 6 3 13 -5 8 -4 9 4 2
18 -17 22 -75 6 -75 -12 0 -18 13 -11 24 1 2 -6 13 -16 23 -9 11 -14 23 -10
27 4 4 9 2 11 -3 2 -6 8 -11 13 -11z m29 -96 c0 -8 -5 -12 -10 -9 -6 4 -8 11
-5 16 9 14 15 11 15 -7z m-30 -434 c0 -5 -4 -10 -10 -10 -5 0 -10 5 -10 10 0
6 5 10 10 10 6 0 10 -4 10 -10z m-90 -40 c-24 -15 -36 -11 -14 4 10 8 21 12
24 10 2 -3 -2 -9 -10 -14z m63 -11 c-7 -24 -33 -25 -33 -1 0 23 8 32 25 26 7
-3 11 -14 8 -25z m-219 -28 c57 -26 95 -39 136 -46 114 -20 121 -43 95 -297
-3 -27 -7 -68 -9 -93 -2 -25 -11 -54 -20 -64 -10 -11 -15 -28 -12 -42 3 -13 8
-80 11 -147 2 -68 10 -153 16 -188 20 -118 -5 -162 -81 -136 -41 15 -100 64
-100 84 0 9 -5 20 -10 23 -6 3 -8 25 -5 48 5 37 4 39 -9 22 -7 -11 -11 -26 -8
-34 11 -28 -45 22 -72 65 -47 75 -59 118 -96 364 -10 69 -26 149 -35 178 -10
32 -14 66 -10 83 8 38 46 79 72 79 19 0 20 -6 16 -172 -2 -95 1 -200 6 -233 8
-57 9 -55 10 50 2 116 4 139 23 273 9 66 14 82 28 82 10 0 23 -7 30 -15 7 -8
17 -15 23 -15 16 0 -38 39 -77 55 -19 8 -42 12 -50 9 -11 -4 -14 2 -14 26 2
58 65 77 142 41z m2334 -147 c8 -9 2 -12 -23 -12 -18 0 -36 6 -38 13 -7 16 46
15 61 -1z m-1808 -44 c36 -16 136 -60 223 -99 87 -39 165 -71 173 -71 11 0 12
-19 8 -107 -7 -117 2 -185 36 -275 25 -67 96 -144 159 -173 29 -13 40 -23 37
-34 -3 -9 -10 -72 -16 -141 -12 -124 -9 -222 12 -415 13 -125 13 -132 -6 -150
-20 -20 -38 -112 -32 -162 4 -29 1 -45 -10 -54 -13 -11 -14 -9 -8 17 l7 29
-26 -24 c-14 -13 -33 -21 -41 -18 -8 3 -20 -1 -26 -9 -25 -29 -40 -16 -36 30
l5 44 -56 -5 c-52 -6 -55 -5 -49 14 5 17 3 20 -16 16 -21 -4 -23 -1 -23 45 0
28 3 48 7 46 5 -3 8 1 8 10 0 8 6 17 13 20 6 3 2 3 -10 1 -12 -3 -24 -1 -28 5
-5 8 -11 8 -21 -1 -7 -6 -11 -15 -8 -20 3 -5 -2 -9 -10 -9 -19 0 -29 17 -20
32 5 7 9 21 9 30 2 24 11 32 29 25 10 -4 13 -13 9 -23 -5 -14 -3 -16 11 -11
10 4 22 7 27 7 5 0 9 7 9 15 0 8 7 15 15 15 11 0 14 -7 9 -24 -7 -28 11 -44
21 -18 6 16 7 16 16 0 15 -27 43 -23 35 5 -3 12 -6 29 -6 38 0 10 -11 20 -25
23 -16 4 -25 13 -25 27 0 29 -18 59 -35 59 -19 0 -19 -19 -1 -39 23 -27 30
-61 11 -61 -10 0 -14 5 -10 13 4 6 0 4 -8 -5 -20 -25 -30 -22 -23 6 4 15 0 28
-8 35 -12 10 -15 8 -18 -11 -2 -16 -11 -24 -28 -27 -14 -1 -28 -8 -32 -14 -4
-6 -10 -8 -15 -4 -4 5 -1 12 7 18 10 5 11 12 5 16 -5 5 -15 23 -22 41 -10 28
-9 34 3 39 9 3 12 9 7 12 -4 3 -14 23 -21 44 -12 33 -12 41 2 55 18 21 6 48
-18 39 -12 -5 -14 -1 -9 24 4 24 3 28 -10 23 -12 -4 -18 2 -23 20 -3 14 -11
26 -16 26 -6 0 -8 7 -4 15 3 8 1 15 -4 15 -5 0 -12 -9 -15 -20 -5 -16 -10 -18
-26 -10 -20 11 -26 45 -9 55 6 3 10 11 10 17 0 7 -5 7 -14 -1 -18 -15 -26 5
-26 61 0 23 -3 38 -7 34 -5 -4 -8 -13 -8 -19 0 -7 -18 -13 -43 -14 -28 -1 -42
2 -41 10 1 7 -3 24 -9 39 -14 35 -5 91 14 84 16 -6 19 10 4 19 -8 5 -8 11 0
20 6 8 9 30 6 52 -4 21 -3 32 0 26 3 -7 11 -13 17 -13 6 0 1 10 -10 23 -12 12
-23 38 -26 58 -2 20 -7 41 -11 47 -9 15 4 42 21 42 8 0 12 4 9 9 -3 5 -14 7
-25 4 -15 -4 -18 0 -14 21 3 14 1 26 -5 26 -5 0 -13 20 -16 45 -4 24 -11 47
-16 50 -5 3 -7 11 -4 18 2 7 6 64 7 127 2 69 8 124 16 139 7 13 10 36 7 53 -5
26 -3 29 12 24 14 -5 13 -3 -3 10 -19 16 -19 16 5 9 14 -4 54 -20 90 -35z
m664 -9 c3 -5 -1 -11 -9 -14 -9 -4 -12 -1 -8 9 6 16 10 17 17 5z m381 -7 l30
-7 -25 -6 c-14 -4 -49 -4 -77 0 -29 4 -62 5 -73 2 -11 -3 -20 -1 -20 5 0 17
102 21 165 6z m1070 -24 c11 -5 16 -9 11 -9 -5 -1 -3 -7 3 -14 6 -8 12 -35 12
-60 1 -27 7 -47 13 -47 14 0 15 -92 1 -102 -6 -5 -5 -8 3 -8 14 0 18 -155 3
-164 -10 -7 -22 40 -51 209 -11 66 -25 136 -30 156 -6 20 -10 39 -10 43 0 8
21 7 45 -4z m-448 -16 c-3 -3 -12 -4 -19 -1 -8 3 -5 6 6 6 11 1 17 -2 13 -5z
m-626 -57 c-8 -8 -11 -7 -11 4 0 9 3 19 7 23 4 4 9 2 11 -4 3 -7 -1 -17 -7
-23z m549 18 c0 -2 -11 -15 -25 -29 l-25 -25 0 24 c0 22 11 33 38 34 6 1 12
-1 12 -4z m90 -35 c0 -5 -4 -10 -10 -10 -5 0 -10 5 -10 10 0 6 5 10 10 10 6 0
10 -4 10 -10z m-40 -19 c0 -11 11 -33 24 -48 l25 -28 37 20 c20 11 39 28 42
37 5 20 11 22 31 9 8 -5 11 -16 6 -30 -5 -18 -2 -24 14 -28 34 -9 24 -32 -24
-54 -27 -13 -34 -12 -77 9 -26 12 -65 23 -87 25 -23 1 -43 7 -45 14 -6 15 31
93 44 93 6 0 10 -9 10 -19z m-83 -38 c-3 -3 -11 -2 -17 2 -9 6 -9 10 1 16 14
8 27 -7 16 -18z m395 -95 c26 -23 30 -34 34 -94 3 -53 1 -71 -13 -86 -18 -20
-43 -24 -43 -8 0 6 -10 21 -23 33 -18 18 -22 32 -21 75 1 29 -3 55 -7 58 -16
10 -9 32 11 37 11 3 20 13 21 24 0 14 2 14 6 3 3 -8 19 -27 35 -42z m-2132
-118 c0 -16 -4 -30 -9 -30 -5 0 -8 12 -6 28 4 34 4 32 10 32 3 0 5 -13 5 -30z
m50 -69 c0 -10 -7 -22 -16 -25 -8 -3 -13 -2 -11 2 2 4 7 15 10 25 8 23 17 22
17 -2z m-50 -1 c0 -5 -2 -10 -4 -10 -3 0 -8 5 -11 10 -3 6 -1 10 4 10 6 0 11
-4 11 -10z m2200 -41 c0 -10 -42 -30 -49 -23 -3 2 4 12 15 23 19 18 34 19 34
0z m-161 -25 c10 -9 -6 -12 -31 -7 -15 3 -25 9 -22 15 5 8 41 2 53 -8z m116
-22 c-3 -3 -11 0 -18 7 -9 10 -8 11 6 5 10 -3 15 -9 12 -12z m-155 -87 c-16
-19 -41 -20 -34 -1 5 14 34 26 43 19 2 -1 -2 -9 -9 -18z m466 -61 c-27 -25
-51 -42 -55 -39 -3 3 17 26 44 50 28 24 52 41 55 38 3 -3 -17 -25 -44 -49z
m-456 31 c-10 -12 -10 -15 3 -15 8 0 17 -11 19 -25 4 -16 1 -25 -8 -25 -7 0
-14 -6 -17 -12 -3 -10 -13 -9 -42 5 l-38 18 23 16 c13 9 32 25 42 35 22 22 36
24 18 3z m-1940 -56 c0 -11 -4 -18 -10 -14 -5 3 -7 12 -3 20 7 21 13 19 13 -6z
m1790 -92 c0 -10 13 -13 45 -12 25 1 45 -2 45 -7 0 -5 11 -13 25 -18 27 -10
44 -55 27 -72 -6 -6 -7 -20 -3 -32 10 -29 7 -51 -7 -49 -6 2 -9 -4 -6 -12 4
-8 1 -15 -6 -15 -7 0 -10 -7 -6 -16 4 -9 0 -27 -9 -40 -8 -13 -12 -30 -9 -39
4 -10 2 -13 -7 -10 -19 8 -75 103 -71 121 2 8 -4 17 -13 20 -8 3 -15 15 -15
26 0 10 -4 16 -10 13 -11 -7 -18 20 -24 88 -3 35 -1 47 10 47 8 0 14 5 14 10
0 6 5 10 10 10 6 0 10 -6 10 -13z m-1677 -137 c3 -11 1 -20 -4 -20 -5 0 -9 9
-9 20 0 11 2 20 4 20 2 0 6 -9 9 -20z m1267 -97 c0 -7 11 -13 25 -13 45 0 26
-17 -33 -30 -78 -16 -132 -18 -132 -4 0 13 37 48 53 50 7 0 20 2 30 2 17 2 17
4 3 24 -26 37 -18 41 19 11 19 -15 35 -34 35 -40z m-1886 0 c-3 -16 -12 -40
-19 -56 -8 -15 -9 -25 -4 -22 15 10 10 -22 -6 -35 -12 -10 -13 -15 -4 -20 8
-6 8 -13 0 -26 -10 -18 -11 -18 -17 4 -3 12 -10 22 -15 22 -5 0 -9 7 -9 15 0
8 5 15 10 15 6 0 10 7 10 15 0 19 -19 20 -26 1 -4 -11 -13 -6 -35 17 -27 28
-28 32 -14 46 18 18 92 50 118 50 14 1 16 -4 11 -26z m721 -13 c3 -5 1 -10 -6
-10 -8 0 -6 -6 4 -18 28 -31 20 -48 -10 -21 -26 24 -27 22 -7 -25 6 -15 -22
-30 -31 -16 -4 6 -1 10 6 10 10 0 10 3 1 12 -15 15 -15 51 0 66 15 15 35 16
43 2z m1343 -33 c-1 -7 1 -25 6 -41 10 -40 -10 -82 -44 -94 -17 -6 -30 -20
-34 -36 -4 -15 -14 -26 -24 -27 -10 0 -12 -3 -4 -6 26 -10 11 -29 -24 -29 -19
0 -39 -6 -43 -13 -5 -7 -11 -12 -15 -12 -30 4 -38 0 -26 -13 6 -8 17 -13 24
-10 8 3 16 -2 20 -11 3 -9 10 -14 15 -10 12 7 43 -37 33 -47 -11 -11 -145 -36
-162 -30 -8 3 -24 14 -34 24 -20 18 -37 22 -88 18 -30 -2 -81 27 -72 41 3 5 1
9 -3 9 -5 0 -14 9 -20 19 -18 28 6 80 62 134 50 49 45 47 141 50 52 1 70 5 67
15 -6 14 1 15 46 6 20 -4 30 -12 29 -22 -2 -8 3 -17 11 -20 10 -3 11 2 6 18
-6 18 -4 22 8 17 10 -4 19 4 27 24 13 31 46 54 81 56 11 1 19 -4 17 -10z
m-1433 -46 c-9 -16 -25 -3 -18 15 4 10 9 12 15 6 6 -6 7 -15 3 -21z m1600 19
c-3 -5 -15 -10 -26 -10 -10 0 -19 5 -19 10 0 6 12 10 26 10 14 0 23 -4 19 -10z
m358 -5 c20 -19 10 -55 -14 -55 -24 0 -38 48 -18 61 18 11 15 11 32 -6z m132
-30 c0 -28 -29 -25 -33 3 -3 19 0 23 15 20 10 -2 18 -12 18 -23z m45 11 c0 -3
-4 -8 -10 -11 -5 -3 -10 -1 -10 4 0 6 5 11 10 11 6 0 10 -2 10 -4z m-2020 -40
c0 -2 -7 -9 -15 -16 -12 -10 -15 -10 -15 4 0 9 7 16 15 16 8 0 15 -2 15 -4z
m560 -26 c0 -5 -2 -10 -4 -10 -3 0 -8 5 -11 10 -3 6 -1 10 4 10 6 0 11 -4 11
-10z m-5 -48 c-3 -3 -11 0 -18 7 -9 10 -8 11 6 5 10 -3 15 -9 12 -12z m-540
-62 c3 -5 1 -10 -4 -10 -6 0 -11 5 -11 10 0 6 2 10 4 10 3 0 8 -4 11 -10z
m1279 -13 c15 -11 17 -19 9 -43 -13 -38 -36 -41 -53 -7 -23 45 -23 46 -12 39
5 -3 12 1 16 9 7 19 17 19 40 2z m-569 -227 c32 -20 51 -47 40 -58 -3 -4 -25
13 -48 36 -45 46 -43 53 8 22z"/>
<path d="M598 2048 c-23 -18 -38 -38 -38 -51 1 -20 4 -18 29 12 31 38 42 36
61 -9 7 -16 16 -27 21 -24 15 9 10 51 -6 58 -9 3 -19 14 -23 25 -7 18 -9 18
-44 -11z"/>
<path d="M420 1762 c0 -13 16 -38 37 -60 20 -20 29 -28 21 -17 -9 11 -25 38
-36 60 -17 32 -21 36 -22 17z"/>
<path d="M634 1753 c0 -10 3 -20 7 -23 3 -3 15 -22 28 -42 24 -40 41 -49 41
-22 0 18 -57 104 -69 104 -5 0 -8 -8 -7 -17z"/>
<path d="M540 1670 c0 -5 5 -10 11 -10 5 0 7 5 4 10 -3 6 -8 10 -11 10 -2 0
-4 -4 -4 -10z"/>
<path d="M992 1318 c12 -55 18 -60 14 -12 -5 55 -5 54 -15 54 -5 0 -5 -18 1
-42z"/>
<path d="M1140 1199 c0 -5 5 -7 10 -4 6 3 10 8 10 11 0 2 -4 4 -10 4 -5 0 -10
-5 -10 -11z"/>
<path d="M1250 1083 c0 -13 5 -23 10 -23 13 0 13 11 0 30 -8 12 -10 11 -10 -7z"/>
<path d="M1350 860 c0 -5 5 -10 10 -10 6 0 10 5 10 10 0 6 -4 10 -10 10 -5 0
-10 -4 -10 -10z"/>
<path d="M1300 810 c0 -5 5 -10 11 -10 5 0 7 5 4 10 -3 6 -8 10 -11 10 -2 0
-4 -4 -4 -10z"/>
<path d="M1440 661 c0 -5 7 -12 16 -15 24 -9 28 -7 14 9 -14 17 -30 20 -30 6z"/>
<path d="M1127 3743 c-4 -3 -7 -11 -7 -17 0 -6 5 -5 12 2 6 6 9 14 7 17 -3 3
-9 2 -12 -2z"/>
<path d="M1060 3731 c0 -5 6 -11 13 -14 7 -3 2 -9 -12 -14 -27 -11 -17 -24 15
-19 26 4 28 56 2 56 -10 0 -18 -4 -18 -9z"/>
<path d="M1080 3629 c0 -5 5 -7 10 -4 6 3 10 8 10 11 0 2 -4 4 -10 4 -5 0 -10
-5 -10 -11z"/>
<path d="M876 3014 c-8 -21 -4 -25 14 -14 11 7 12 12 4 20 -8 8 -13 7 -18 -6z"/>
<path d="M731 2863 c2 -31 3 -33 6 -10 3 18 9 25 16 20 7 -4 6 0 -2 10 -19 24
-21 22 -20 -20z"/>
<path d="M900 2789 c0 -5 5 -7 10 -4 6 3 10 8 10 11 0 2 -4 4 -10 4 -5 0 -10
-5 -10 -11z"/>
<path d="M846 2725 c-3 -8 -11 -14 -17 -13 -6 2 -15 -7 -20 -19 -10 -27 -2
-29 22 -7 16 14 18 14 24 -5 3 -12 11 -19 16 -15 6 4 6 11 -1 19 -7 8 -9 23
-5 35 7 23 -10 28 -19 5z"/>
<path d="M885 2719 c-11 -16 -1 -19 13 -3 7 8 8 14 3 14 -5 0 -13 -5 -16 -11z"/>
<path d="M865 2640 c3 -5 11 -10 16 -10 6 0 7 5 4 10 -3 6 -11 10 -16 10 -6 0
-7 -4 -4 -10z"/>
<path d="M780 2595 c0 -8 4 -15 9 -15 5 0 8 -7 7 -16 0 -11 7 -18 22 -19 12
-1 22 4 22 11 0 8 -6 11 -15 8 -9 -4 -16 3 -21 20 -7 28 -24 36 -24 11z"/>
<path d="M765 2540 c3 -5 8 -10 11 -10 2 0 4 5 4 10 0 6 -5 10 -11 10 -5 0 -7
-4 -4 -10z"/>
<path d="M722 2520 c0 -14 2 -19 5 -12 2 6 2 18 0 25 -3 6 -5 1 -5 -13z"/>
<path d="M1499 2359 c16 -6 28 -6 35 1 7 7 -1 10 -24 9 -33 0 -34 -1 -11 -10z"/>
<path d="M2738 2363 c6 -2 18 -2 25 0 6 3 1 5 -13 5 -14 0 -19 -2 -12 -5z"/>
<path d="M2785 2360 c4 -6 11 -8 16 -5 14 9 11 15 -7 15 -8 0 -12 -5 -9 -10z"/>
<path d="M1688 2287 c-27 -10 -38 -27 -18 -27 16 0 60 23 60 32 0 10 -7 9 -42
-5z"/>
<path d="M1625 2250 c-3 -6 1 -7 9 -4 18 7 21 14 7 14 -6 0 -13 -4 -16 -10z"/>
<path d="M1810 2085 c0 -14 2 -25 4 -25 2 0 6 11 8 25 3 14 1 25 -3 25 -5 0
-9 -11 -9 -25z"/>
<path d="M1801 2034 c0 -11 3 -14 6 -6 3 7 2 16 -1 19 -3 4 -6 -2 -5 -13z"/>
<path d="M2096 1824 c-9 -24 -2 -26 12 -4 7 11 8 20 3 20 -5 0 -12 -7 -15 -16z"/>
<path d="M1925 1209 c-4 -6 -5 -12 -2 -15 2 -3 7 2 10 11 7 17 1 20 -8 4z"/>
<path d="M1885 1190 c-3 -5 -2 -10 4 -10 5 0 13 5 16 10 3 6 2 10 -4 10 -5 0
-13 -4 -16 -10z"/>
<path d="M1951 1166 c-8 -10 -9 -16 -1 -21 5 -3 13 1 16 10 9 22 -1 29 -15 11z"/>
<path d="M1960 1110 c0 -5 5 -10 10 -10 6 0 10 5 10 10 0 6 -4 10 -10 10 -5 0
-10 -4 -10 -10z"/>
<path d="M3100 160 c0 -5 5 -10 11 -10 5 0 7 5 4 10 -3 6 -8 10 -11 10 -2 0
-4 -4 -4 -10z"/>
<path d="M2922 24 c10 -10 20 -16 22 -13 3 3 -5 11 -17 18 -21 13 -21 12 -5
-5z"/>
</g>
</svg>
